
<svg width="180" height="40" viewBox="0 0 180 40" xmlns="http://www.w3.org/2000/svg">
<g clip-path="url(#clip0_10_82)">
<path d="M138.404 20.7592L138.422 20.7786C138.423 20.7743 138.429 20.7608 138.44 20.7383C138.53 20.5586 138.905 19.8072 138.434 18.6551C137.596 16.5661 134.028 13.132 120.965 9.49827C112.294 7.06309 99.3996 4.43406 80.3229 2.72154C77.8946 2.51691 74.9832 2.32928 71.7421 2.19802C69.523 2.12954 67.1683 2.07969 64.7166 2.04872C42.8281 1.63556 12.9765 3.94513 9.36988 5.37587C5.95907 6.69171 4.04591 9.98382 3.00579 13.1063C1.85214 16.5711 1.72738 19.8291 1.71868 20.108L1.69931 20.108C1.69931 20.108 1.69605 21.0539 1.81641 22.4831C2.15447 26.1142 3.46249 32.8 8.64478 34.929C12.1823 36.3938 41.9168 38.9872 63.8201 38.7827C66.2915 38.7944 68.6481 38.767 70.8511 38.7003C74.0977 38.6 77.0174 38.4401 79.4549 38.2587C98.61 36.6897 111.608 34.2032 120.411 31.8706C127.815 29.9174 132.226 27.9693 134.853 26.3216C139.853 23.1214 138.404 20.7592 138.404 20.7592Z" />
<path d="M138.527 20.8763L107.333 12.0001L70.3334 11.0001L37 11.0001L14.6667 12.0001L3.12893 13.2235C4.16904 10.1009 6.08218 6.80881 9.49297 5.49299C13.0996 4.06226 42.9512 1.75267 64.8397 2.16583C67.2914 2.19681 69.6461 2.24664 71.8652 2.31513C75.1063 2.4464 78.0177 2.63402 80.446 2.83864C99.5227 4.55117 112.417 7.18022 121.088 9.6154C134.151 13.2491 137.719 16.6832 138.558 18.7722C139.087 20.0681 138.546 20.8571 138.546 20.8957L138.527 20.8763Z" fill="white" fill-opacity="0.4"/>
<path d="M1.93944 22.6003C1.81908 21.1711 1.82236 20.2252 1.82236 20.2252C1.82236 20.2252 1.90349 16.8278 3.11005 13.2041C27.6596 10.5411 77.1855 10.7963 96.6921 11.4877C110.874 11.9607 126.874 15.5698 138.519 18.772C139.048 20.068 138.508 20.857 138.507 20.8956C138.486 20.9534 139.957 23.2578 134.956 26.4579C117.796 28.577 93.4783 31.2412 78.3105 31.6129C67.1616 31.888 23.9517 27.5315 1.91966 22.6195L1.93944 22.6003Z" fill="white" fill-opacity="0.2"/>
<path d="M120.534 31.9876C121.032 29.7312 97.0817 29.1345 97.3094 26.8768C97.4603 25.4103 98.0711 20.8572 97.8455 18.1727C97.2208 10.3703 96.2574 8.06677 94.6666 4.33325C142.443 10.2148 138.49 20.7987 138.507 20.8953C138.507 20.8953 138.637 21.1083 138.667 21.456C138.882 22.9821 137.907 27.3984 120.514 32.0068L120.534 31.9876Z" fill="#D8F0F4"/>
<path d="M95.4156 36.6364C95.9136 34.38 97.0927 28.6712 97.3402 26.3944C100.306 25.9259 128.656 24.2462 132.298 23.723C134.585 23.3864 136.922 22.5481 139.112 21.4388C139.326 22.965 138.918 31.1678 95.4354 36.6172L95.4156 36.6364Z" fill="#97C4D1"/>
<path d="M177.956 15.9698C177.975 15.9689 177.987 15.9682 177.994 15.9678L177.999 15.9675L177.96 16.0059C177.918 16.0312 177.851 16.0716 177.759 16.1258C175.523 18.304 156.989 36.15 145.253 34.364L145.233 34.3833C141.654 33.8643 139.114 31.8444 137.443 29.8866C135.675 27.8704 135 26.6666 135 26.6666L135.571 20.92L135.484 19.7227L135.145 15.3C135.145 15.3 141.139 -1.98837 153.638 8.30305C163.365 16.3067 176.302 16.0376 177.846 15.9748C177.948 15.9454 178 15.9289 178 15.9289L177.96 15.9674C177.959 15.9682 177.958 15.969 177.956 15.9698Z" />
<path d="M170.904 17.1307C164.75 19.3022 159.176 18.1945 153.377 16.024C150.18 14.8311 146.922 15.4334 143.625 16.0354C141.704 16.3931 139.763 16.8086 137.812 16.8572C136.131 16.9071 137.103 15.8113 137.837 14.9847C139.983 12.4466 142.932 10.2598 146.211 9.59974C149.568 8.94004 152.836 10.3649 155.615 12.077C157.669 13.361 159.55 14.6634 161.908 15.3889C163.844 15.9966 165.882 16.3538 167.926 16.4794C168.91 16.542 170.698 16.0486 170.904 17.1307V17.1307Z" fill="white" fill-opacity="0.5"/>
</g>
<defs>
<clipPath id="clip0_10_82">
<rect width="40" height="180" fill="white" transform="translate(180) rotate(90)"/>
</clipPath>
</defs>
</svg>
