<svg width="34" height="34" viewBox="0 0 34 34" fill="none" xmlns="http://www.w3.org/2000/svg">
<g clip-path="url(#clip0_403_3)">
<path d="M7.0835 25.5754C7.0835 25.3038 7.30373 25.0835 7.57539 25.0835H13.675C13.9465 25.0835 14.1668 25.3038 14.1668 25.5754V25.9689C14.1668 27.9249 12.5812 29.5106 10.6252 29.5106C8.66916 29.5106 7.0835 27.9249 7.0835 25.9689V25.5754Z" fill="#231A1A"/>
<path d="M7.10194 14.8645C7.08949 14.6334 7.08317 14.4007 7.08317 14.1665C7.08317 7.12488 12.7915 1.4165 19.8332 1.4165C26.8749 1.4165 32.5832 7.12488 32.5832 14.1665C32.5832 21.2082 26.8749 26.9165 19.8332 26.9165C19.599 26.9165 19.3662 26.9101 19.1352 26.8977M7.10194 14.8645C3.76429 16.2476 1.4165 19.5371 1.4165 23.3748C1.4165 28.4605 5.53922 32.5832 10.6248 32.5832C14.4626 32.5832 17.7521 30.2353 19.1352 26.8977M7.10194 14.8645C8.18715 14.4147 9.37701 14.1665 10.6248 14.1665C15.7105 14.1665 19.8332 18.2891 19.8332 23.3748C19.8332 24.6226 19.585 25.8125 19.1352 26.8977" stroke="#231A1A" stroke-width="1.83333" stroke-linecap="round"/>
<path d="M19.8332 9.91683C20.6156 9.91683 21.2498 9.28256 21.2498 8.50016C21.2498 7.71777 20.6156 7.0835 19.8332 7.0835C19.0507 7.0835 18.4165 7.71777 18.4165 8.50016C18.4165 9.28256 19.0507 9.91683 19.8332 9.91683Z" fill="#231A1A" stroke="#231A1A" stroke-width="0.458333" stroke-linecap="round"/>
<path d="M7.08317 22.6668C7.86557 22.6668 8.49984 22.0326 8.49984 21.2502C8.49984 20.4677 7.86557 19.8335 7.08317 19.8335C6.30077 19.8335 5.6665 20.4677 5.6665 21.2502C5.6665 22.0326 6.30077 22.6668 7.08317 22.6668Z" fill="#231A1A" stroke="#231A1A" stroke-width="0.458333" stroke-linecap="round"/>
<path d="M14.1667 22.6668C14.9491 22.6668 15.5833 22.0326 15.5833 21.2502C15.5833 20.4677 14.9491 19.8335 14.1667 19.8335C13.3843 19.8335 12.75 20.4677 12.75 21.2502C12.75 22.0326 13.3843 22.6668 14.1667 22.6668Z" fill="#231A1A" stroke="#231A1A" stroke-width="0.458333" stroke-linecap="round"/>
<path d="M19.8335 12.75C20.1724 13.2359 20.619 13.587 21.1003 13.8168C21.5869 14.0494 22.1262 14.1667 22.6668 14.1667C23.2074 14.1667 23.7468 14.0494 24.2335 13.8168C24.7146 13.587 25.1613 13.2359 25.5002 12.75" stroke="#231A1A" stroke-width="1.83333" stroke-linecap="round"/>
<path d="M25.5002 9.91683C26.2826 9.91683 26.9168 9.28256 26.9168 8.50016C26.9168 7.71777 26.2826 7.0835 25.5002 7.0835C24.7177 7.0835 24.0835 7.71777 24.0835 8.50016C24.0835 9.28256 24.7177 9.91683 25.5002 9.91683Z" fill="#231A1A" stroke="#231A1A" stroke-width="0.458333" stroke-linecap="round"/>
</g>
<defs>
<clipPath id="clip0_403_3">
<rect width="34" height="34" fill="none"/>
</clipPath>
</defs>
</svg>
