
<svg width="40" height="180" viewBox="0 0 40 180" fill="none" xmlns="http://www.w3.org/2000/svg">
<g clip-path="url(#clip0_12_90)">
<path d="M19.8852 177.281L6.06665 160.767H34.0407L19.8852 177.281Z" fill="#FFD8A1"/>
<path d="M27.6371 169.193H13.1445L20.5593 177.956L27.6371 169.193Z" fill="black"/>
<path d="M5.05566 31.0075V18.5371H35.726V31.0075H5.05566Z" fill="#F9C7F0"/>
<path d="M34.7149 159.081H5.05566V32.3555H34.7149V159.081Z" fill="#E9C332"/>
<path d="M20.8963 4.38136C9.84147 2.76358 5.50493 13.369 4.71851 18.874H35.3889C34.0407 5.12287 25.1654 3.48261 20.8963 4.38136Z" fill="white"/>
<path d="M5.05566 19.2111C5.16801 13.5938 6.74085 3.3703 20.2223 4.04444C26.9631 4.0444 34.7823 4.65107 35.052 19.2111M5.05566 19.2111H35.052M5.05566 19.2111V31.6814M35.052 19.2111V31.6814M5.05566 31.6814V160.43M5.05566 31.6814H15.5038M35.052 31.6814V160.43M35.052 31.6814H25.2779M5.05566 160.43L20.5594 178.63L35.052 160.43M5.05566 160.43H15.5038M35.052 160.43H25.2779M15.5038 31.6814V160.43M15.5038 31.6814H25.2779M15.5038 160.43H25.2779M25.2779 160.43V31.6814" stroke="#333333" stroke-width="4.04444" stroke-linejoin="round"/>
</g>
<defs>
<clipPath id="clip0_12_90">
<rect width="40" height="180" fill="white"/>
</clipPath>
</defs>
</svg>
