
<svg width="40" height="180" viewBox="0 0 40 180" xmlns="http://www.w3.org/2000/svg">
<g clip-path="url(#clip0_10_82)">
<path d="M20.7592 41.5964L20.7786 41.5776C20.7743 41.5775 20.7608 41.5707 20.7383 41.5595C20.5586 41.4699 19.8072 41.0952 18.6551 41.5655C16.5661 42.4039 13.132 45.9716 9.49827 59.0354C7.06309 67.7057 4.43406 80.6004 2.72154 99.6771C2.51691 102.105 2.32929 105.017 2.19802 108.258C2.12954 110.477 2.07969 112.832 2.04873 115.283C1.63556 137.172 3.94513 167.024 5.37588 170.63C6.69171 174.041 9.98383 175.954 13.1063 176.994C16.5711 178.148 19.8291 178.273 20.1081 178.281L20.108 178.301C20.108 178.301 21.0539 178.304 22.4831 178.184C26.1142 177.846 32.8001 176.538 34.929 171.355C36.3938 167.818 38.9872 138.083 38.7827 116.18C38.7944 113.708 38.7671 111.352 38.7003 109.149C38.6 105.902 38.4401 102.983 38.2587 100.545C36.6897 81.39 34.2033 68.3925 31.8706 59.589C29.9174 52.185 27.9693 47.7742 26.3216 45.1473C23.1214 40.1466 20.7592 41.5964 20.7592 41.5964Z" />
<path d="M20.8763 41.4733L12.0001 72.6666L11.0001 109.667L11.0001 143L12.0001 165.333L13.2235 176.871C10.1009 175.831 6.80882 173.918 5.49299 170.507C4.06227 166.9 1.75267 137.049 2.16583 115.16C2.19681 112.709 2.24664 110.354 2.31513 108.135C2.4464 104.894 2.63402 101.982 2.83864 99.554C4.55117 80.4773 7.18022 67.5826 9.61539 58.9123C13.2491 45.8485 16.6832 42.2808 18.7722 41.4424C20.0681 40.9133 20.8571 41.4536 20.8957 41.4545L20.8763 41.4733Z" fill="white" fill-opacity="0.4"/>
<path d="M22.6003 178.061C21.1711 178.181 20.2252 178.178 20.2252 178.178C20.2252 178.178 16.8278 178.097 13.2042 176.89C10.5411 152.34 10.7963 102.814 11.4877 83.3079C11.9607 69.1258 15.5698 53.1262 18.772 41.481C20.068 40.952 20.857 41.4922 20.8956 41.4931C20.9534 41.5138 23.2578 40.0433 26.4579 45.044C28.577 62.2039 31.2412 86.5217 31.6129 101.69C31.888 112.838 27.5315 156.048 22.6195 178.08L22.6003 178.061Z" fill="white" fill-opacity="0.2"/>
<path d="M31.9876 59.466C29.7312 58.968 29.1345 82.9183 26.8768 82.6906C25.4104 82.5397 20.8572 81.9289 18.1727 82.1545C10.3703 82.7792 8.06678 83.7426 4.33325 85.3334C10.2148 37.5572 20.7987 41.5102 20.8953 41.4932C20.8953 41.4932 21.1083 41.3631 21.456 41.3328C22.9821 41.1182 27.3984 42.0927 32.0068 59.4858L31.9876 59.466Z" fill="#D8F0F4"/>
<path d="M36.6364 84.5844C34.38 84.0864 28.6712 82.9073 26.3944 82.6598C25.9259 79.6941 24.2462 51.3444 23.723 47.7015C23.3864 45.4148 22.5481 43.0775 21.4388 40.8882C22.965 40.6737 31.1678 41.082 36.6172 84.5646L36.6364 84.5844Z" fill="#97C4D1"/>
<path d="M15.9698 2.04362C15.9689 2.02516 15.9682 2.01261 15.9678 2.00612L15.9675 2.00093L16.0059 2.04047C16.0312 2.08222 16.0716 2.14941 16.1258 2.24072C18.304 4.47662 36.15 23.0109 34.3641 34.747L34.3833 34.7668C33.8643 38.3462 31.8444 40.8856 29.8866 42.5575C27.8704 44.3245 26.6666 45 26.6666 45L20.92 44.4289L19.7227 44.5162L15.3001 44.8548C15.3001 44.8548 -1.98837 38.8611 8.30305 26.3618C16.3067 16.6353 16.0376 3.69818 15.9748 2.1537C15.9454 2.05243 15.9289 2 15.9289 2L15.9674 2.03954C15.9682 2.04087 15.969 2.04223 15.9698 2.04362Z" />
<path d="M17.1307 9.09622C19.3022 15.2503 18.1945 20.8239 16.024 26.6232C14.8311 29.8196 15.4334 33.0782 16.0354 36.3754C16.3931 38.2957 16.8086 40.2367 16.8572 42.1883C16.9071 43.8695 15.8113 42.8971 14.9847 42.1629C12.4466 40.0167 10.2598 37.0679 9.59974 33.7886C8.94004 30.4321 10.3649 27.164 12.077 24.3855C13.361 22.3306 14.6634 20.4499 15.3889 18.092C15.9966 16.1562 16.3538 14.1178 16.4794 12.0738C16.542 11.0905 16.0486 9.30211 17.1307 9.09622V9.09622Z" fill="white" fill-opacity="0.5"/>
</g>
<defs>
<clipPath id="clip0_10_82">
<rect width="40" height="180" fill="white"/>
</clipPath>
</defs>
</svg>
